<?xml version="1.0" encoding="iso-8859-1"?>
<!-- Generator: Adobe Illustrator 16.0.0, SVG Export Plug-In . SVG Version: 6.00 Build 0)  -->
<!DOCTYPE svg PUBLIC "-//W3C//DTD SVG 1.1//EN" "http://www.w3.org/Graphics/SVG/1.1/DTD/svg11.dtd">
<svg version="1.1" id="Capa_1" xmlns="http://www.w3.org/2000/svg" xmlns:xlink="http://www.w3.org/1999/xlink" x="0px" y="0px"
	 width="224.72px" height="224.72px" viewBox="0 0 224.72 224.72" style="enable-background:new 0 0 224.72 224.72;"
	 xml:space="preserve">
<g>
	<path d="M142.719,173.011c0,16.764-13.567,30.327-30.331,30.327c-16.746,0-30.322-13.563-30.322-30.327
		c0-16.76,13.577-30.327,30.322-30.327C129.151,142.684,142.719,156.251,142.719,173.011z M42.604,114.64l23.244,19.485
		c23.19-27.688,69.964-27.688,93.127,0.032l23.279-19.429c-17.385-20.79-42.844-32.693-69.861-32.693
		C85.382,82.035,59.941,93.911,42.604,114.64z M0,71.198l22.479,20.374c22.951-25.352,55.723-39.864,89.909-39.864
		c34.177,0,66.931,14.512,89.883,39.803l22.449-20.374c-28.698-31.629-69.623-49.756-112.327-49.756
		C69.656,21.382,28.698,39.569,0,71.198z"/>
</g>
<g>
</g>
<g>
</g>
<g>
</g>
<g>
</g>
<g>
</g>
<g>
</g>
<g>
</g>
<g>
</g>
<g>
</g>
<g>
</g>
<g>
</g>
<g>
</g>
<g>
</g>
<g>
</g>
<g>
</g>
</svg>
